<svg width="44" height="30" viewBox="0 0 44 30" fill="none" xmlns="http://www.w3.org/2000/svg">
<path d="M28.48 29.12C26.3467 29.12 24.4934 28.6933 22.92 27.84C21.3467 26.9867 20.1333 25.76 19.28 24.16C18.4267 22.56 18 20.6133 18 18.32C18 15.76 18.36 13.3733 19.08 11.16C19.8 8.92 20.8267 6.9733 22.16 5.32C23.4933 3.64 25.0667 2.33334 26.88 1.4C28.6934 0.46667 30.6934 0 32.88 0C35.0134 0 36.8534 0.42667 38.4 1.28C39.9734 2.13334 41.1867 3.36 42.04 4.96C42.92 6.56 43.36 8.5067 43.36 10.8C43.36 13.36 42.9867 15.76 42.24 18C41.52 20.2133 40.4934 22.16 39.16 23.84C37.8534 25.4933 36.2934 26.7867 34.48 27.72C32.6667 28.6533 30.6667 29.12 28.48 29.12ZM29.24 22.64C30.28 22.64 31.1867 22.2533 31.96 21.48C32.7334 20.68 33.3734 19.68 33.88 18.48C34.3867 17.28 34.76 16.0133 35 14.68C35.2667 13.3467 35.4 12.12 35.4 11C35.4 9.3733 35.0934 8.2133 34.48 7.52C33.8934 6.8267 33.1067 6.48 32.12 6.48C31.08 6.48 30.1734 6.88 29.4 7.68C28.6267 8.4533 27.9867 9.44 27.48 10.64C26.9734 11.84 26.5867 13.1067 26.32 14.44C26.08 15.7733 25.96 17 25.96 18.12C25.96 19.7467 26.2534 20.9067 26.84 21.6C27.4534 22.2933 28.2534 22.64 29.24 22.64Z" fill="url(#paint0_linear_206_6)"/>
<path d="M0.84 29L5.84 3.96L8.6 7.12H0L1.24 1H14.36L8.76 29H0.84Z" fill="url(#paint1_linear_206_6)"/>
<defs>
<linearGradient id="paint0_linear_206_6" x1="37.2518" y1="-12.94" x2="24.6818" y2="51.14" gradientUnits="userSpaceOnUse">
<stop stop-color="white"/>
<stop offset="1" stop-color="#131119" stop-opacity="0"/>
</linearGradient>
<linearGradient id="paint1_linear_206_6" x1="12.865" y1="-12.5" x2="0.295001" y2="51.58" gradientUnits="userSpaceOnUse">
<stop stop-color="white"/>
<stop offset="1" stop-color="#131119" stop-opacity="0"/>
</linearGradient>
</defs>
</svg>
