<svg width="422" height="976" viewBox="0 0 422 976" fill="none" xmlns="http://www.w3.org/2000/svg">
<path d="M241 456.013L3.50166 70.0781C-0.556452 63.4837 -1.1197 55.2149 2.60628 48.4273C26.0358 5.74558 56.5344 -5.44428 114.468 3.34385C120.856 4.31292 126.402 8.03304 129.845 13.5004C219.75 156.247 393.425 431.704 409.5 456.013C425.9 480.813 426 494.513 409.5 518.013L130.396 964.089C126.672 970.042 120.421 974.031 113.418 974.552C58.2148 978.666 26.9794 963.936 2.83103 920.763C-1.01572 913.886 -0.490773 905.484 3.67489 898.795C80.5877 775.292 225.851 542.097 241 518.013C256.6 493.213 255.5 479.013 241 456.013Z" fill="#D9D9D9"/>
</svg>
