<svg width="752" height="146" viewBox="0 0 752 146" fill="none" xmlns="http://www.w3.org/2000/svg">
<path d="M29.64 97.4L28.32 70.76L64.44 32H90.6L54.6 71L41.4 84.8L29.64 97.4ZM8.4 116V32H31.92V116H8.4ZM64.8 116L37.44 81.32L52.92 64.76L92.4 116H64.8ZM97.5544 116V50.96H120.354V116H97.5544ZM108.954 43.76C104.794 43.76 101.434 42.6 98.8744 40.28C96.3144 37.96 95.0344 35.08 95.0344 31.64C95.0344 28.2 96.3144 25.32 98.8744 23C101.434 20.68 104.794 19.52 108.954 19.52C113.114 19.52 116.474 20.64 119.034 22.88C121.594 25.04 122.874 27.84 122.874 31.28C122.874 34.88 121.594 37.88 119.034 40.28C116.554 42.6 113.194 43.76 108.954 43.76ZM177.532 49.88C182.572 49.88 187.132 50.92 191.212 53C195.292 55 198.492 58.12 200.812 62.36C203.212 66.6 204.412 72.08 204.412 78.8V116H181.612V82.52C181.612 77.88 180.652 74.52 178.732 72.44C176.892 70.28 174.292 69.2 170.932 69.2C168.532 69.2 166.332 69.76 164.332 70.88C162.332 71.92 160.772 73.56 159.652 75.8C158.532 78.04 157.972 80.96 157.972 84.56V116H135.172V50.96H156.892V69.44L152.692 64.04C155.172 59.32 158.572 55.8 162.892 53.48C167.212 51.08 172.092 49.88 177.532 49.88ZM252.187 117.08C245.067 117.08 238.747 115.64 233.227 112.76C227.707 109.88 223.347 105.92 220.147 100.88C217.027 95.76 215.467 89.92 215.467 83.36C215.467 76.8 217.027 71 220.147 65.96C223.347 60.92 227.707 57 233.227 54.2C238.747 51.32 245.067 49.88 252.187 49.88C259.307 49.88 265.627 51.32 271.147 54.2C276.747 57 281.107 60.92 284.227 65.96C287.347 71 288.907 76.8 288.907 83.36C288.907 89.92 287.347 95.76 284.227 100.88C281.107 105.92 276.747 109.88 271.147 112.76C265.627 115.64 259.307 117.08 252.187 117.08ZM252.187 98.96C254.827 98.96 257.147 98.36 259.147 97.16C261.227 95.96 262.867 94.2 264.067 91.88C265.267 89.48 265.867 86.64 265.867 83.36C265.867 80.08 265.267 77.32 264.067 75.08C262.867 72.76 261.227 71 259.147 69.8C257.147 68.6 254.827 68 252.187 68C249.627 68 247.307 68.6 245.227 69.8C243.227 71 241.587 72.76 240.307 75.08C239.107 77.32 238.507 80.08 238.507 83.36C238.507 86.64 239.107 89.48 240.307 91.88C241.587 94.2 243.227 95.96 245.227 97.16C247.307 98.36 249.627 98.96 252.187 98.96Z" fill="white"/>
<path d="M331.268 140.36C325.028 140.36 319.068 139.64 313.388 138.2C307.788 136.76 302.988 134.64 298.988 131.84L307.268 115.88C309.988 118.04 313.348 119.72 317.348 120.92C321.428 122.2 325.388 122.84 329.228 122.84C335.388 122.84 339.828 121.48 342.548 118.76C345.268 116.12 346.628 112.24 346.628 107.12V99.44L347.828 81.2L347.708 62.84V50.96H369.428V104.12C369.428 116.44 366.108 125.56 359.468 131.48C352.828 137.4 343.428 140.36 331.268 140.36ZM327.308 112.64C321.548 112.64 316.228 111.36 311.348 108.8C306.548 106.16 302.668 102.52 299.708 97.88C296.828 93.16 295.388 87.6 295.388 81.2C295.388 74.8 296.828 69.28 299.708 64.64C302.668 59.92 306.548 56.28 311.348 53.72C316.228 51.16 321.548 49.88 327.308 49.88C332.828 49.88 337.548 51 341.468 53.24C345.388 55.4 348.348 58.8 350.348 63.44C352.428 68.08 353.468 74 353.468 81.2C353.468 88.4 352.428 94.32 350.348 98.96C348.348 103.6 345.388 107.04 341.468 109.28C337.548 111.52 332.828 112.64 327.308 112.64ZM332.708 94.52C335.428 94.52 337.828 93.96 339.908 92.84C342.068 91.72 343.748 90.16 344.948 88.16C346.228 86.16 346.868 83.84 346.868 81.2C346.868 78.56 346.228 76.24 344.948 74.24C343.748 72.24 342.068 70.72 339.908 69.68C337.828 68.56 335.428 68 332.708 68C329.988 68 327.548 68.56 325.388 69.68C323.228 70.72 321.508 72.24 320.228 74.24C319.028 76.24 318.428 78.56 318.428 81.2C318.428 83.84 319.028 86.16 320.228 88.16C321.508 90.16 323.228 91.72 325.388 92.84C327.548 93.96 329.988 94.52 332.708 94.52ZM384.078 116V50.96H405.798V69.92L402.558 64.52C404.478 59.64 407.598 56 411.918 53.6C416.238 51.12 421.478 49.88 427.638 49.88V70.4C426.598 70.24 425.678 70.16 424.878 70.16C424.158 70.08 423.358 70.04 422.478 70.04C417.838 70.04 414.078 71.32 411.198 73.88C408.318 76.36 406.878 80.44 406.878 86.12V116H384.078ZM472.899 116V103.88L471.339 100.88V78.56C471.339 74.96 470.219 72.2 467.979 70.28C465.819 68.28 462.339 67.28 457.539 67.28C454.419 67.28 451.259 67.8 448.059 68.84C444.859 69.8 442.139 71.16 439.899 72.92L432.219 57.44C435.899 55.04 440.299 53.2 445.419 51.92C450.619 50.56 455.779 49.88 460.899 49.88C471.459 49.88 479.619 52.32 485.379 57.2C491.219 62 494.139 69.56 494.139 79.88V116H472.899ZM453.699 117.08C448.499 117.08 444.099 116.2 440.499 114.44C436.899 112.68 434.139 110.28 432.219 107.24C430.379 104.2 429.459 100.8 429.459 97.04C429.459 93.04 430.459 89.6 432.459 86.72C434.539 83.76 437.699 81.52 441.939 80C446.179 78.4 451.659 77.6 458.379 77.6H473.739V89.48H461.499C457.819 89.48 455.219 90.08 453.699 91.28C452.259 92.48 451.539 94.08 451.539 96.08C451.539 98.08 452.299 99.68 453.819 100.88C455.339 102.08 457.419 102.68 460.059 102.68C462.539 102.68 464.779 102.08 466.779 100.88C468.859 99.6 470.379 97.68 471.339 95.12L474.459 103.52C473.259 108 470.899 111.4 467.379 113.72C463.939 115.96 459.379 117.08 453.699 117.08ZM593.251 49.88C598.291 49.88 602.771 50.92 606.691 53C610.691 55 613.811 58.12 616.051 62.36C618.371 66.6 619.531 72.08 619.531 78.8V116H596.731V82.52C596.731 77.88 595.851 74.52 594.091 72.44C592.331 70.28 589.931 69.2 586.891 69.2C584.731 69.2 582.771 69.72 581.011 70.76C579.251 71.8 577.891 73.4 576.931 75.56C575.971 77.64 575.491 80.36 575.491 83.72V116H552.691V82.52C552.691 77.88 551.811 74.52 550.051 72.44C548.371 70.28 545.971 69.2 542.851 69.2C540.611 69.2 538.611 69.72 536.851 70.76C535.171 71.8 533.811 73.4 532.771 75.56C531.811 77.64 531.331 80.36 531.331 83.72V116H508.531V50.96H530.251V69.08L525.931 63.92C528.331 59.28 531.611 55.8 535.771 53.48C539.931 51.08 544.571 49.88 549.691 49.88C555.531 49.88 560.651 51.4 565.051 54.44C569.531 57.4 572.531 62.04 574.051 68.36L566.611 66.8C568.931 61.52 572.411 57.4 577.051 54.44C581.771 51.4 587.171 49.88 593.251 49.88ZM718.642 49.88C723.682 49.88 728.162 50.92 732.082 53C736.082 55 739.202 58.12 741.442 62.36C743.762 66.6 744.922 72.08 744.922 78.8V116H722.122V82.52C722.122 77.88 721.242 74.52 719.482 72.44C717.722 70.28 715.322 69.2 712.282 69.2C710.122 69.2 708.162 69.72 706.402 70.76C704.642 71.8 703.282 73.4 702.322 75.56C701.362 77.64 700.882 80.36 700.882 83.72V116H678.082V82.52C678.082 77.88 677.202 74.52 675.442 72.44C673.762 70.28 671.362 69.2 668.242 69.2C666.002 69.2 664.002 69.72 662.242 70.76C660.562 71.8 659.202 73.4 658.162 75.56C657.202 77.64 656.722 80.36 656.722 83.72V116H633.922V50.96H655.642V69.08L651.322 63.92C653.722 59.28 657.002 55.8 661.162 53.48C665.322 51.08 669.962 49.88 675.082 49.88C680.922 49.88 686.042 51.4 690.442 54.44C694.922 57.4 697.922 62.04 699.442 68.36L692.002 66.8C694.322 61.52 697.802 57.4 702.442 54.44C707.162 51.4 712.562 49.88 718.642 49.88Z" fill="#FFA31A"/>
<ellipse cx="109" cy="31.5" rx="14" ry="12.5" fill="#FFA31A"/>
</svg>
